# xmcd CD database file
#
# Track frame offsets:
#	150
#	15128
#	33265
#	50462
#	69369
#	87886
#	110840
#	124443
#	139139
#	159638
#	173352
#
# Disc length: 2562 seconds
#
# Revision: 0
# Processed by: cddbd v1.5.1PL2 Copyright (c) Steve Scherf et al.
# Submitted via: CDex 1.51
#
DISCID=870a000b
DTITLE=Caroline Herring - Wellspring
DYEAR=2000
DGENRE=Country
TTITLE0=Trace
TTITLE1=Mortified
TTITLE2=Jewels 
TTITLE3=Magnolias
TTITLE4=Colorado Woman 
TTITLE5=Mistress
TTITLE6=Texas Two Step 
TTITLE7=MGM Grand
TTITLE8=The Way That You Are
TTITLE9=Heart And Soul
TTITLE10=Tacoma Blues 
EXTD=YEAR: 2000
EXTT0=
EXTT1=
EXTT2=
EXTT3=
EXTT4=
EXTT5=
EXTT6=
EXTT7=
EXTT8=
EXTT9=
EXTT10=
PLAYORDER=
